<svg xmlns="http://www.w3.org/2000/svg" viewBox="0 0 88.65 88.65"><defs><style>.cls-1{fill:#98eb61;}.cls-2{fill:#fff;}</style></defs><title>icon</title><g id="Layer_2" data-name="Layer 2"><g id="Layer_1-2" data-name="Layer 1"><circle class="cls-1" cx="44.33" cy="44.33" r="44.33"/><path class="cls-2" d="M55.68,37.23a19.31,19.31,0,0,1-3,10.55.69.69,0,0,0,.11,1c.8.79.78.81,0,1.6-1.46,1.46-2.92,2.9-4.36,4.37-.32.32-.53.41-.89,0-.8-.83-.82-.81-1.84-.23a19,19,0,0,1-9,2.64,32.09,32.09,0,0,1-3.58-.18,18.36,18.36,0,0,1-10.24-4.38A19.6,19.6,0,0,1,16.39,43a19.84,19.84,0,0,1-.63-8.71A20.09,20.09,0,0,1,29.68,18,19.27,19.27,0,0,1,37,17.15a19.9,19.9,0,0,1,13.26,6.28,19.32,19.32,0,0,1,4.85,8.78c.4,1.63.52,3.33.76,5Zm-3.59,0A16.48,16.48,0,1,0,35.44,53.71,16.41,16.41,0,0,0,52.09,37.25Z"/><path class="cls-2" d="M66.2,72.71a4.53,4.53,0,0,1-3.47-1.54l-6.42-7-4.61-5c-.6-.66-1.21-1.31-1.84-1.94-.28-.27-.32-.47,0-.75q2.5-2.47,5-5c.25-.25.44-.28.71,0q3.85,3.57,7.72,7.13C64.61,59.78,66,61,67.4,62.25A28.38,28.38,0,0,1,70,64.85,4.46,4.46,0,0,1,70.62,70,4.63,4.63,0,0,1,66.2,72.71Z"/><path class="cls-2" d="M21.41,37.65a14.29,14.29,0,0,1,5-11.31,1,1,0,0,1,1.42,0c.36.42.28.92-.25,1.38a12.74,12.74,0,0,0-3.76,5.55,12.43,12.43,0,0,0,4.92,14.29c.83.54,1.07,1.08.71,1.6s-1,.43-1.74-.1a13.76,13.76,0,0,1-6-8.86C21.56,39.24,21.49,38.24,21.41,37.65Z"/></g></g></svg>