<?xml version="1.0" encoding="utf-8"?>
<!-- Generator: Adobe Illustrator 22.0.1, SVG Export Plug-In . SVG Version: 6.00 Build 0)  -->
<svg version="1.1" id="Layer_1" xmlns="http://www.w3.org/2000/svg" xmlns:xlink="http://www.w3.org/1999/xlink" x="0px" y="0px"
	 viewBox="0 0 484.4 119.9" style="enable-background:new 0 0 484.4 119.9;" xml:space="preserve">
<style type="text/css">
	.st0{fill:#FFFFFF;}
</style>
<g>
	<path class="st0" d="M93.3,15.4c-0.9-0.5-2-1-3.2-1.3c-1.2-0.3-2.5-0.5-3.7-0.6c-1.2-0.1-2.4,0.1-3.5,0.4c-1.1,0.3-2.1,0.8-2.8,1.5
		c-0.9,0.8-1.5,2.3-2,4.4c-0.5,2.1-0.8,4.7-1,7.6c-0.1,3-0.1,6.2,0.1,9.8c0.2,3.5,0.6,7.2,1.2,10.8c-3.5-1.8-7.6-3.3-12.3-4.4
		c-0.4-3.7-1.5-7.3-3.1-10.9c-1.6-3.6-3.8-6.8-6.5-9.6c-2.7-2.9-5.9-5.2-9.6-6.9c-3.7-1.8-7.9-2.6-12.5-2.6c-3.6,0-6.8,0.5-9.6,1.4
		c-2.7,0.9-5.1,2.1-7,3.5c-1.9,1.4-3.5,3-4.8,4.8c-1.3,1.8-2.2,3.5-2.9,5.1c-0.7,1.6-1.1,3.1-1.3,4.4c-0.2,1.3-0.2,2.3,0,3
		c0.2,0.9,0.9,1.7,2,2.4c1.1,0.7,2.4,1.3,3.8,1.6c1.4,0.4,2.8,0.5,4.1,0.5c1.4-0.1,2.3-0.4,2.9-1.1c0.5-0.6,1-1.5,1.4-2.6
		c0.4-1.1,0.9-2.2,1.5-3.3c0.6-1.1,1.5-2.2,2.7-3.3c1.2-1,2.8-1.9,5-2.4c1.6-0.4,3.4-0.4,5.3,0.1c1.9,0.5,3.9,1.4,5.8,2.6
		c1.9,1.3,3.6,2.8,5.2,4.8s2.9,4.1,3.8,6.4c-1.5-0.1-3-0.2-4.4-0.2c-1.4,0-2.9,0-4.3,0.1c-4.2,0.2-7.9,0.8-11.2,1.8
		c-3.3,1-6.2,2.1-8.6,3.3c-2.4,1.2-4.3,2.5-5.8,3.7c-1.4,1.3-2.3,2.3-2.6,3.2c-0.4,1.1-0.5,2.3-0.3,3.7c0.2,1.3,0.7,2.6,1.3,3.7
		c0.7,1.1,1.5,2.1,2.6,2.8s2.2,1,3.5,0.8c0.7-0.1,1.7-0.5,3-1.2c1.3-0.7,3-1.6,5-2.5c2-1,4.4-2,7.2-3c2.7-1.1,5.9-2,9.4-2.8
		c1.1-0.3,2.2-0.5,3.3-0.7c1.1-0.2,2.2-0.4,3.4-0.6c-0.4,3-0.9,5.4-1.7,7.2c-0.8,1.7-1.6,3.1-2.5,4.1c-0.9,1-1.7,1.8-2.5,2.4
		c-0.8,0.6-1.4,1.3-1.8,2.1c-0.4,0.7-0.5,1.5-0.4,2.1c0.1,0.7,0.4,1.2,1,1.7c0.5,0.5,1.2,0.8,2.1,1c0.9,0.2,1.9,0.2,3.2,0.1
		c1.1-0.2,2.4-0.7,3.9-1.7c1.5-1,3-2.3,4.4-4.1c1.4-1.8,2.8-4,4-6.6c1.2-2.6,2.1-5.7,2.6-9.2c2.3,0.1,4.6,0.2,6.9,0.6
		c2.3,0.3,4.6,0.9,6.9,1.6c0.7,3.1,1.5,6.1,2.4,8.9c0.9,2.8,1.9,5.4,3,7.7c0.3,0.5,0.8,0.9,1.7,1.1c0.9,0.2,1.7,0.3,2.6,0.2
		c0.9-0.1,1.7-0.4,2.4-0.8c0.7-0.5,1-1.1,0.9-1.8c-0.7-6.2-0.9-13.6-0.6-22.2c0.4-8.6,1.7-18,4-28.2c0.2-0.8,0-1.6-0.5-2.3
		C94.9,16.6,94.2,15.9,93.3,15.4z"/>
	<path class="st0" d="M220.2,45.4c-0.6-0.3-1.3-0.6-1.9-0.6s-1.1,0-1.5,0.2c-0.4,0.3-0.8,0.7-1,1.3c-0.2,0.6-0.5,1.2-0.8,2
		c-0.3,0.7-0.6,1.5-1,2.2c-0.4,0.8-0.9,1.4-1.6,2c-0.6,0.5-1.3,0.8-2,0.9c-0.7,0.1-1.3,0.1-2-0.1c-0.6-0.2-1.1-0.5-1.6-1
		c-0.5-0.5-0.8-1.1-0.9-1.8c-0.5-2.3-0.5-4.7-0.2-6.9c0.4-2.3,0.8-4.4,1.4-6.3c0.6-1.9,1.1-3.7,1.5-5.1c0.4-1.5,0.5-2.6,0.2-3.3
		c-0.3-0.6-0.9-1.3-1.8-1.9c-0.9-0.6-1.9-1.1-3-1.5c-1.1-0.4-2.2-0.6-3.2-0.6c-1,0-1.8,0.2-2.4,0.8c-0.9,1-1.7,2.6-2.5,4.8
		c-0.8,2.2-1.4,5.1-2,8.5c-0.9-0.6-1.9-1-3-1.2c-1.1-0.2-2.3-0.3-3.5-0.3c-1.8,0.1-3.5,0.5-5.1,1.3c-1.7,0.8-3.1,1.8-4.4,3.2
		c-1.1,1.1-1.9,2.4-2.7,3.8c-0.2,0.2-0.3,0.5-0.4,0.7c-0.3,0.6-0.5,1.2-0.8,2c-0.3,0.7-0.6,1.5-1,2.2c-0.4,0.8-1,1.4-1.7,2
		c-0.7,0.5-1.4,0.9-2.2,1c-0.8,0.2-1.5,0.1-2.2,0c-0.7-0.2-1.3-0.5-1.9-1c-0.6-0.5-0.9-1.2-1.2-2c-0.3-1-0.4-2-0.3-3
		c0.1-1,0.3-2,0.5-2.8c0.2-0.9,0.4-1.7,0.6-2.4c0.2-0.7,0.2-1.3,0-1.7c-0.2-0.4-0.6-0.8-1.3-1.1c-0.6-0.3-1.4-0.6-2.2-0.8
		c-0.8-0.2-1.6-0.3-2.4-0.3c-0.8,0-1.4,0.1-1.9,0.3c-0.6,0.4-1.2,1-1.8,2c-2.1-2.4-5-3.5-8.8-3.4c-1.8,0.1-3.5,0.5-5.1,1.3
		c-1.7,0.8-3.1,1.8-4.4,3.2c-1.3,1.4-2.4,3-3.2,4.8c-0.1,0.2-0.2,0.5-0.3,0.7c-0.1,0.2-0.3,0.4-0.4,0.7c-0.4,0.7-0.8,1.3-1.3,2
		c-0.5,0.7-1,1.4-1.7,2c-1.5,1.5-3.2,2.6-5,3.3c-1.8,0.7-3.5,1-5.2,1c-1.7,0-3.2-0.3-4.6-1c-1.4-0.6-2.4-1.5-3.1-2.7
		c2.2,1.3,4.3,1.9,6.3,1.9c2,0,3.8-0.4,5.2-1.3c1.5-0.9,2.6-2,3.3-3.5c0.7-1.5,0.9-3.1,0.5-4.9c-0.3-1.3-0.9-2.4-1.8-3.4
		c-0.9-1-2-1.9-3.3-2.5c-1.3-0.7-2.7-1.2-4.3-1.5c-1.6-0.3-3.2-0.4-4.8-0.2c-1.8,0.2-3.5,0.6-5.1,1.3c-1.7,0.7-3.1,1.6-4.4,2.8
		c-1.3,1.2-2.4,2.7-3.2,4.4c-0.8,1.7-1.2,3.7-1.2,6c0,2.3,0.5,4.4,1.5,6.2c1,1.8,2.3,3.3,3.9,4.5c1.6,1.2,3.5,2.2,5.6,2.8
		c2.1,0.6,4.3,1,6.6,1c3.4,0,6.6-0.7,9.6-2c2.8-1.2,5.3-2.7,7.4-4.5c0.6,1.2,1.4,2.3,2.3,3.1c1.2,1.1,2.6,1.9,4.2,2.5
		c1.6,0.5,3.3,0.7,5,0.6c1.6-0.1,3.2-0.6,4.7-1.4c1.5-0.9,2.9-2,4.2-3.5c1.3,2.2,3.2,3.7,5.7,4.7c2.5,0.9,5.2,0.8,8.2-0.4
		c2.1-0.9,4-2,5.7-3.6c0.5-0.4,0.9-0.8,1.3-1.2c0.6,0.9,1.2,1.8,1.9,2.5c1.2,1.1,2.6,1.9,4.2,2.5c1.6,0.5,3.3,0.7,5,0.6
		c1.6-0.1,3.2-0.6,4.8-1.4c1.6-0.9,3-2.1,4.2-3.6c1.4,2.5,3.4,4.1,6,4.8c2.6,0.7,5.2,0.5,8-0.5c2.1-0.9,4-2,5.7-3.6
		c1.7-1.5,3.2-3.1,4.4-4.8c1.2-1.7,2.1-3.2,2.7-4.7c0.6-1.5,0.9-2.6,0.8-3.4c-0.1-0.7-0.4-1.4-0.9-2
		C221.4,46.3,220.8,45.8,220.2,45.4z M112,45c0.4-0.4,0.9-0.6,1.5-0.7c0.6-0.1,1.2,0.2,1.6,0.7c0.5,0.5,0.7,1.1,0.7,1.7
		c0,0.6-0.2,1.1-0.6,1.4c-0.3,0.4-0.8,0.6-1.4,0.6c-0.6,0.1-1.1-0.2-1.7-0.6c-0.6-0.5-0.9-1.1-0.8-1.7C111.4,45.9,111.6,45.4,112,45
		z M152.1,50.4c-0.1,1.2-0.5,2.2-1.2,3c-0.7,0.8-1.6,1.2-2.8,1.3c-1.2,0.1-2.1-0.3-2.8-1.3c-0.7-1-1.1-2.1-1.2-3.4
		c-0.1-0.6,0-1.3,0.2-1.9c0.2-0.6,0.5-1.2,0.9-1.7c0.4-0.5,0.8-0.9,1.4-1.2c0.6-0.3,1.2-0.4,1.9-0.3c0.5,0.1,0.9,0.2,1.4,0.4
		c0.5,0.2,0.9,0.5,1.2,1c0.4,0.4,0.7,1,0.8,1.6C152.2,48.6,152.2,49.4,152.1,50.4z M193.2,50.4c-0.2,1.2-0.6,2.2-1.2,3
		c-0.7,0.8-1.6,1.2-2.8,1.3c-1.2,0.1-2.2-0.3-2.9-1.3c-0.7-1-1.1-2.1-1.2-3.4c-0.1-0.6,0-1.3,0.2-1.9c0.2-0.6,0.5-1.2,0.9-1.7
		c0.4-0.5,0.8-0.9,1.4-1.2c0.6-0.3,1.2-0.4,1.9-0.3c1,0.1,1.9,0.6,2.7,1.4C193.1,47.1,193.4,48.4,193.2,50.4z"/>
	<path class="st0" d="M308.7,20.2c-2.5-2-5.7-3.6-9.6-4.9c-3.9-1.3-8.5-1.9-13.9-1.9c-3.7,0-7.3,0.3-11,0.9
		c-3.7,0.6-7.1,1.5-10.4,2.8c-3.3,1.3-6.4,2.8-9.2,4.7c-2.9,1.9-5.3,4.1-7.4,6.7c-2.1,2.6-3.7,5.4-4.9,8.6
		c-1.2,3.2-1.8,6.7-1.8,10.6c0,3.5,0.9,7,2.8,10.4c1.9,3.4,4.6,6.4,8.2,9c3.6,2.6,8,4.5,13.2,5.8c5.2,1.3,11.2,1.7,17.9,1
		c3.8-0.4,7.3-1.2,10.5-2.5c3.1-1.3,5.8-2.8,8-4.6c2.2-1.8,3.9-3.6,5.1-5.5c1.2-1.9,1.8-3.6,1.9-5.2c0-1.2-0.4-2.2-1.2-3
		c-0.8-0.8-1.8-1.3-2.9-1.6c-1.1-0.3-2.2-0.3-3.4,0c-1.1,0.3-2,0.9-2.6,1.8c-0.6,1-1.3,1.9-2.1,2.9c-0.8,1-1.9,1.9-3.3,2.8
		c-1.4,0.9-3.1,1.7-5.2,2.4c-2.1,0.7-4.7,1.3-7.9,1.8c-3.1,0.5-6.1,0.4-9-0.4c-2.9-0.7-5.3-1.9-7.4-3.5c-2.1-1.6-3.8-3.5-5-5.8
		c-1.2-2.3-1.8-4.7-1.7-7.4c0.1-2.7,1-5.4,2.7-8.1c1.7-2.7,4-5.2,6.8-7.4c2.9-2.2,6.2-4,9.9-5.4c3.8-1.4,7.8-2,12-1.8
		c2.8,0.1,5.1,0.4,7.1,0.9c1.9,0.5,3.5,1.1,4.7,1.9c1.2,0.8,2,1.6,2.5,2.5c0.5,0.9,0.7,1.8,0.6,2.6c-0.2,1.5-1.3,2.8-3.2,3.8
		c-1.9,1-4.3,1.6-7.2,1.9c-2.8,0.3-5.4,0.3-7.6,0c-2.3-0.3-4.3-0.7-6.1-1.2c-1.8-0.5-3.4-0.9-4.8-1.2c-1.4-0.4-2.7-0.5-3.8-0.3
		c-0.9,0.2-1.7,0.7-2.6,1.6c-0.9,0.9-1.6,1.9-2.3,3c-0.6,1.1-1.1,2.3-1.3,3.4c-0.2,1.1-0.1,2.1,0.5,2.8c0.9,1.1,2.2,2.1,4,2.8
		c1.8,0.7,3.9,1.3,6.3,1.7c2.4,0.4,4.9,0.6,7.6,0.6c2.7,0,5.4-0.1,8.1-0.4c2.7-0.3,5.3-0.7,7.7-1.2c2.5-0.6,4.6-1.3,6.5-2.1
		c3.1-1.4,5.6-3.2,7.4-5.4c1.8-2.2,2.8-4.6,3.1-7s-0.1-5-1.1-7.4C313,24.5,311.2,22.2,308.7,20.2z"/>
	<path class="st0" d="M473.2,46.8c-0.5-0.6-1-1.1-1.7-1.4c-0.6-0.3-1.3-0.6-2-0.6c-0.7-0.1-1.2,0-1.6,0.2c-0.4,0.3-0.7,0.7-1,1.3
		c-0.3,0.6-0.5,1.2-0.8,2c-0.3,0.7-0.6,1.5-1,2.2c-0.4,0.8-1,1.4-1.7,2c-0.7,0.5-1.5,0.9-2.3,1c-0.8,0.1-1.6,0.1-2.4-0.2
		c-0.8-0.2-1.5-0.6-2.1-1.2c-0.6-0.6-1.1-1.3-1.3-2.1c-0.5-1.7-0.6-3.7-0.2-6.1c0.4-2.3,0.9-4.7,1.6-7c2.2-0.2,4.2-0.7,6-1.4
		c1-0.4,1.7-1.1,2.3-2.3c0.6-1.2,1-2.4,1.1-3.6c0.2-1.2,0.1-2.3-0.3-3.3c-0.3-1-1-1.4-2-1.3l-3.8,0.5c0.1-1,0.1-1.7-0.1-2.1
		c-0.2-0.4-0.8-0.8-1.8-1.2c-1-0.3-2.1-0.6-3.4-0.6c-1.2-0.1-2.4,0-3.6,0.2c-1.1,0.2-1.9,0.7-2.3,1.4c-0.3,0.4-0.5,0.9-0.8,1.4
		s-0.5,1-0.8,1.4c-2.6-0.1-5.5-0.2-8.8-0.4c-3.3-0.2-7-0.6-11.2-1.2c-0.8-0.1-1.5,0.2-2.1,0.9c-0.6,0.7-1.1,1.5-1.3,2.4
		c-0.3,0.9-0.3,1.8-0.1,2.7c0.2,0.9,0.7,1.5,1.5,1.8c2.6,1.1,5.5,2.1,8.6,2.8c3.1,0.7,6.3,1.3,9.5,1.7c-0.7,3-1.1,6.1-1.2,9
		c0,0.6,0,1.2,0,1.8c-0.1,0.2-0.2,0.4-0.3,0.7c-0.3,0.7-0.7,1.5-1.1,2.2c-0.4,0.8-1,1.4-1.7,2c-1.4,1.1-2.8,1.4-4.4,1
		c-1.5-0.4-2.5-1.4-3.1-3.1c-0.3-1-0.4-2-0.5-3c-0.1-1-0.1-2-0.2-2.8c0-0.9-0.1-1.7-0.1-2.4c0-0.7-0.1-1.3-0.4-1.7
		c-0.2-0.4-0.7-0.8-1.6-1.2c-0.9-0.4-1.8-0.7-2.8-0.9c-1-0.2-2.1-0.3-3.1-0.3c-1,0-1.8,0.3-2.4,0.7l-0.2,0.2c-2.5,1.9-4.8,3.9-6.9,6
		c-2.1,2.1-4.1,4.7-6.1,7.8c0-0.3,0-0.5,0-0.8c0-0.2,0-0.5,0.1-0.8c0.1-1.3,0.2-2.6,0.6-3.8c0.3-1.3,0.6-2.5,0.9-3.5
		c0.3-1.1,0.5-2,0.7-2.8c0.2-0.8,0.2-1.5,0-1.9c-0.3-0.5-0.9-1-1.8-1.3c-1-0.3-2-0.6-3.1-0.6s-2.2,0-3.2,0.1c-1,0.2-1.7,0.5-2,1
		c-0.5,0.7-0.9,1.6-1.4,2.7c-0.4,1.1-0.8,2.3-1.1,3.6c-0.2,0.9-0.4,1.8-0.6,2.7c-0.1,0.3-0.3,0.7-0.4,1c-0.3,0.7-0.6,1.5-1,2.2
		c-0.4,0.8-1,1.4-1.7,2c-0.7,0.5-1.4,0.9-2.2,1c-0.8,0.2-1.5,0.1-2.2,0c-0.7-0.2-1.3-0.5-1.9-1c-0.6-0.5-0.9-1.2-1.2-2
		c-0.3-1-0.5-2-0.6-3c-0.1-1-0.1-2-0.2-2.8c0-0.9-0.1-1.7-0.1-2.4c0-0.7-0.1-1.3-0.3-1.7c-0.2-0.4-0.7-0.8-1.3-1.1
		c-0.7-0.3-1.4-0.6-2.2-0.8c-0.8-0.2-1.6-0.3-2.4-0.3c-0.8,0-1.4,0.1-1.8,0.3c-0.6,0.3-1.2,1.1-1.8,2.4c-0.6,1.3-1.1,3-1.5,5
		c-0.7,3.2-1.6,5.5-2.7,6.8c-1,1.3-2.3,1.9-3.6,1.9c-1.1-0.1-1.9-0.5-2.6-1.2c-0.7-0.7-1.1-1.8-1.3-3c-0.1-1-0.1-2.1,0.2-3.2
		c0.2-1.1,0.4-2.3,0.7-3.3c0.2-1.1,0.4-2,0.6-2.9c0.2-0.9,0.1-1.5-0.1-1.9c-0.3-0.5-0.9-1-1.8-1.3c-1-0.3-2-0.6-3.1-0.6
		s-2.2,0-3.2,0.1c-1,0.2-1.7,0.5-2.1,1c-0.5,0.7-0.9,1.6-1.3,2.6c-0.1,0.3-0.2,0.6-0.3,0.9c-0.4,0.1-0.8,0.2-1.3,0.4
		c-1.4,0.4-3,0.7-4.8,1c-1.8,0.3-3.6,0.3-5.4,0c-1.2-1.7-2.8-3.1-4.7-4.1c-1.9-1-4-1.6-6.3-1.8c-1.8-0.1-3.6,0.1-5.4,0.7
		c-1.8,0.6-3.4,1.4-4.8,2.6s-2.6,2.7-3.5,4.5c-0.9,1.8-1.5,3.9-1.6,6.3c-0.2,2.6,0.1,4.8,0.9,6.7c0.8,1.9,1.8,3.5,3.2,4.7
		c1.3,1.2,2.9,2.1,4.6,2.7c1.7,0.6,3.5,0.9,5.2,0.8c1.7-0.1,3.4-0.5,5.1-1.2c1.7-0.7,3.3-1.8,4.6-3c1.4-1.3,2.5-2.8,3.4-4.4
		c0.9-1.7,1.4-3.5,1.6-5.4c2.1-0.1,4.1-0.5,5.9-1.2c0.7-0.2,1.2-0.5,1.8-0.8c0,0.7,0,1.4,0,2c0.1,2.3,0.4,4.4,1.1,6.2
		c0.7,1.8,1.6,3.2,2.8,4.4c1.1,1.1,2.5,2,4.1,2.6s3.2,0.8,5,0.7c2-0.1,3.9-0.7,5.6-1.8c1.7-1.1,3.3-2.5,4.7-4.3
		c0.7,1.3,1.6,2.4,2.6,3.4c1.1,1,2.3,1.7,3.6,2.2c1.3,0.5,2.8,0.8,4.3,0.8s3.1-0.3,4.8-1c2.1-0.9,4-2,5.7-3.6
		c0.3-0.2,0.5-0.5,0.8-0.7c0.1,0.4,0.2,0.7,0.3,1.1c0.3,1,0.6,1.8,0.9,2.4c0.4,0.8,1.1,1.3,2.2,1.4c1,0.2,2.1,0.1,3.2-0.2
		c1.1-0.3,2.2-0.7,3.1-1.2s1.6-1.1,2-1.7c1-1.5,2.4-3.3,4.1-5.1c1.7-1.9,3.6-3.5,5.6-5l0.2,1.7c0.2,2.1,0.8,4,1.8,5.7
		c1,1.7,2.4,3.1,4,4.2c1.6,1.1,3.5,1.7,5.6,2c2.1,0.2,4.2-0.1,6.4-0.9c2.1-0.9,4-2,5.7-3.6c0.9-0.8,1.7-1.6,2.4-2.4
		c0.1,0.3,0.3,0.5,0.4,0.8c1.1,1.7,2.4,3.1,4,4.2c1.6,1.1,3.3,1.7,5.3,2c1.9,0.2,4-0.1,6.2-0.9c2.1-0.9,4-2,5.7-3.6s3.2-3.1,4.4-4.8
		c1.2-1.7,2.1-3.2,2.7-4.7c0.6-1.5,0.9-2.6,0.8-3.4C473.9,48.1,473.6,47.4,473.2,46.8z M334.4,52c-0.6,0.7-1.2,1.3-2,1.8
		c-0.7,0.4-1.5,0.6-2.4,0.6c-0.9,0-1.7-0.4-2.4-1.1c-0.9-0.8-1.4-1.7-1.4-2.7c0-1,0.2-2,0.7-2.9c0.5-0.9,1.2-1.7,2-2.4
		c0.9-0.7,1.8-1.1,2.7-1.2c0.4,0.9,0.9,1.8,1.5,2.8c0.6,1,1.4,1.8,2.4,2.6C335.4,50.4,335,51.2,334.4,52z"/>
</g>
<g>
	<path class="st0" d="M106.4,105.7h-4.2v7.2h-2.4V95h5.9c2,0,3.6,0.5,4.7,1.4c1.1,0.9,1.6,2.3,1.6,4c0,1.1-0.3,2.1-0.9,2.9
		s-1.4,1.4-2.5,1.9l4.2,7.6v0.1h-2.5L106.4,105.7z M102.2,103.7h3.6c1.2,0,2.1-0.3,2.8-0.9c0.7-0.6,1-1.4,1-2.4c0-1.1-0.3-2-1-2.5
		c-0.7-0.6-1.6-0.9-2.9-0.9h-3.6V103.7z"/>
	<path class="st0" d="M123.2,112.9c-0.1-0.3-0.2-0.7-0.3-1.4c-1.1,1.1-2.3,1.6-3.8,1.6c-1.3,0-2.4-0.4-3.2-1.1
		c-0.8-0.7-1.3-1.7-1.3-2.8c0-1.4,0.5-2.5,1.6-3.2c1.1-0.8,2.5-1.1,4.4-1.1h2.2v-1c0-0.8-0.2-1.4-0.7-1.9c-0.5-0.5-1.2-0.7-2.1-0.7
		c-0.8,0-1.5,0.2-2,0.6s-0.8,0.9-0.8,1.5h-2.3c0-0.7,0.2-1.3,0.7-1.9c0.5-0.6,1.1-1.1,1.9-1.5s1.7-0.5,2.7-0.5
		c1.5,0,2.7,0.4,3.6,1.1c0.9,0.8,1.3,1.8,1.4,3.2v6.1c0,1.2,0.2,2.2,0.5,2.9v0.2H123.2z M119.4,111.2c0.7,0,1.4-0.2,2-0.6
		c0.6-0.4,1.1-0.8,1.4-1.4v-2.7H121c-2.8,0-4.2,0.8-4.2,2.4c0,0.7,0.2,1.3,0.7,1.7C118,111,118.6,111.2,119.4,111.2z"/>
	<path class="st0" d="M130.8,99.6l0.1,1.7c1-1.3,2.3-1.9,4-1.9c2.8,0,4.2,1.6,4.3,4.8v8.8h-2.3v-8.8c0-1-0.2-1.7-0.7-2.1
		c-0.4-0.5-1.1-0.7-2-0.7c-0.7,0-1.4,0.2-1.9,0.6c-0.6,0.4-1,0.9-1.3,1.5v9.5h-2.3V99.6H130.8z"/>
	<path class="st0" d="M142,106.1c0-2,0.5-3.7,1.4-4.9c1-1.2,2.2-1.9,3.8-1.9c1.6,0,2.8,0.5,3.7,1.6V94h2.3v18.9h-2.1l-0.1-1.4
		c-0.9,1.1-2.2,1.7-3.8,1.7c-1.5,0-2.8-0.6-3.8-1.9c-1-1.3-1.5-2.9-1.5-4.9V106.1z M144.2,106.4c0,1.5,0.3,2.7,0.9,3.5
		c0.6,0.9,1.5,1.3,2.6,1.3c1.4,0,2.5-0.6,3.2-1.9v-6.1c-0.7-1.3-1.7-1.9-3.1-1.9c-1.1,0-2,0.4-2.6,1.3
		C144.6,103.4,144.2,104.7,144.2,106.4z"/>
	<path class="st0" d="M156.1,106.1c0-1.3,0.3-2.5,0.8-3.5s1.2-1.8,2.1-2.4c0.9-0.6,2-0.8,3.1-0.8c1.8,0,3.3,0.6,4.4,1.9
		c1.1,1.3,1.7,2.9,1.7,5v0.2c0,1.3-0.2,2.5-0.7,3.5c-0.5,1-1.2,1.8-2.1,2.4s-2,0.9-3.2,0.9c-1.8,0-3.3-0.6-4.4-1.9
		c-1.1-1.3-1.7-2.9-1.7-5V106.1z M158.4,106.4c0,1.5,0.3,2.7,1,3.6c0.7,0.9,1.6,1.3,2.7,1.3c1.2,0,2.1-0.5,2.8-1.4
		c0.7-0.9,1-2.2,1-3.8c0-1.5-0.3-2.6-1-3.5c-0.7-0.9-1.6-1.4-2.8-1.4c-1.1,0-2,0.4-2.7,1.3C158.7,103.5,158.4,104.7,158.4,106.4z"/>
	<path class="st0" d="M173.2,99.6l0.1,1.5c1-1.1,2.3-1.7,3.9-1.7c1.9,0,3.1,0.7,3.8,2.1c0.4-0.6,1-1.2,1.7-1.5
		c0.7-0.4,1.5-0.6,2.5-0.6c2.9,0,4.4,1.5,4.4,4.6v8.9h-2.3v-8.8c0-1-0.2-1.7-0.7-2.1c-0.4-0.5-1.2-0.7-2.2-0.7
		c-0.8,0-1.5,0.3-2.1,0.8c-0.6,0.5-0.9,1.2-1,2v8.8h-2.3v-8.7c0-1.9-0.9-2.9-2.8-2.9c-1.5,0-2.5,0.6-3.1,1.9v9.7h-2.3V99.6H173.2z"
		/>
	<path class="st0" d="M204.2,104.6l-2.2,2.3v6h-2.4V95h2.4v8.8L210,95h2.9l-7,7.9l7.6,10h-2.8L204.2,104.6z"/>
	<path class="st0" d="M215.1,96.1c0-0.4,0.1-0.7,0.3-0.9c0.2-0.3,0.6-0.4,1-0.4c0.4,0,0.8,0.1,1,0.4c0.2,0.3,0.3,0.6,0.3,0.9
		s-0.1,0.7-0.3,0.9c-0.2,0.2-0.6,0.4-1,0.4c-0.4,0-0.8-0.1-1-0.4C215.2,96.7,215.1,96.4,215.1,96.1z M217.6,112.9h-2.3V99.6h2.3
		V112.9z"/>
	<path class="st0" d="M223.4,99.6l0.1,1.7c1-1.3,2.3-1.9,4-1.9c2.8,0,4.2,1.6,4.3,4.8v8.8h-2.3v-8.8c0-1-0.2-1.7-0.7-2.1
		c-0.4-0.5-1.1-0.7-2-0.7c-0.7,0-1.4,0.2-1.9,0.6c-0.6,0.4-1,0.9-1.3,1.5v9.5h-2.3V99.6H223.4z"/>
	<path class="st0" d="M234.6,106.1c0-2,0.5-3.7,1.4-4.9c1-1.2,2.2-1.9,3.8-1.9c1.6,0,2.8,0.5,3.7,1.6V94h2.3v18.9h-2.1l-0.1-1.4
		c-0.9,1.1-2.2,1.7-3.8,1.7c-1.5,0-2.8-0.6-3.8-1.9c-1-1.3-1.5-2.9-1.5-4.9V106.1z M236.8,106.4c0,1.5,0.3,2.7,0.9,3.5
		c0.6,0.9,1.5,1.3,2.6,1.3c1.4,0,2.5-0.6,3.2-1.9v-6.1c-0.7-1.3-1.7-1.9-3.1-1.9c-1.1,0-2,0.4-2.6,1.3
		C237.1,103.4,236.8,104.7,236.8,106.4z"/>
	<path class="st0" d="M254.8,113.1c-1.8,0-3.3-0.6-4.4-1.8c-1.1-1.2-1.7-2.8-1.7-4.7v-0.4c0-1.3,0.3-2.5,0.8-3.5
		c0.5-1,1.2-1.8,2.1-2.4c0.9-0.6,1.9-0.9,2.9-0.9c1.7,0,3.1,0.6,4,1.7c1,1.1,1.4,2.8,1.4,4.9v0.9h-9c0,1.3,0.4,2.4,1.1,3.2
		c0.7,0.8,1.7,1.2,2.8,1.2c0.8,0,1.5-0.2,2-0.5c0.6-0.3,1-0.8,1.5-1.3l1.4,1.1C258.7,112.3,257,113.1,254.8,113.1z M254.5,101.2
		c-0.9,0-1.7,0.3-2.3,1c-0.6,0.7-1,1.6-1.2,2.8h6.7v-0.2c-0.1-1.2-0.4-2-0.9-2.7S255.5,101.2,254.5,101.2z"/>
	<path class="st0" d="M269.1,101.6c-0.3-0.1-0.7-0.1-1.1-0.1c-1.5,0-2.5,0.6-3,1.9v9.4h-2.3V99.6h2.2l0,1.5c0.7-1.2,1.8-1.8,3.2-1.8
		c0.4,0,0.8,0.1,1,0.2V101.6z"/>
	<path class="st0" d="M270.6,106.1c0-2.1,0.5-3.7,1.4-4.9c1-1.2,2.2-1.8,3.8-1.8c1.6,0,2.9,0.6,3.8,1.7l0.1-1.5h2.1v13
		c0,1.7-0.5,3.1-1.5,4.1s-2.4,1.5-4.1,1.5c-1,0-1.9-0.2-2.8-0.6c-0.9-0.4-1.6-1-2.1-1.7l1.2-1.4c1,1.2,2.2,1.8,3.6,1.8
		c1.1,0,2-0.3,2.6-0.9s0.9-1.5,0.9-2.6v-1.1c-0.9,1-2.2,1.6-3.7,1.6c-1.6,0-2.8-0.6-3.8-1.9C271.1,110,270.6,108.3,270.6,106.1z
		 M272.9,106.4c0,1.5,0.3,2.7,0.9,3.5c0.6,0.9,1.5,1.3,2.6,1.3c1.4,0,2.5-0.7,3.2-2v-6.1c-0.7-1.3-1.7-1.9-3.1-1.9
		c-1.1,0-2,0.4-2.6,1.3C273.2,103.4,272.9,104.7,272.9,106.4z"/>
	<path class="st0" d="M293.5,112.9c-0.1-0.3-0.2-0.7-0.3-1.4c-1.1,1.1-2.3,1.6-3.8,1.6c-1.3,0-2.4-0.4-3.2-1.1
		c-0.8-0.7-1.3-1.7-1.3-2.8c0-1.4,0.5-2.5,1.6-3.2c1.1-0.8,2.5-1.1,4.4-1.1h2.2v-1c0-0.8-0.2-1.4-0.7-1.9c-0.5-0.5-1.2-0.7-2.1-0.7
		c-0.8,0-1.5,0.2-2,0.6s-0.8,0.9-0.8,1.5h-2.3c0-0.7,0.2-1.3,0.7-1.9c0.5-0.6,1.1-1.1,1.9-1.5s1.7-0.5,2.7-0.5
		c1.5,0,2.7,0.4,3.6,1.1c0.9,0.8,1.3,1.8,1.4,3.2v6.1c0,1.2,0.2,2.2,0.5,2.9v0.2H293.5z M289.7,111.2c0.7,0,1.4-0.2,2-0.6
		s1.1-0.8,1.4-1.4v-2.7h-1.8c-2.8,0-4.2,0.8-4.2,2.4c0,0.7,0.2,1.3,0.7,1.7C288.3,111,289,111.2,289.7,111.2z"/>
	<path class="st0" d="M305.4,101.6c-0.3-0.1-0.7-0.1-1.1-0.1c-1.5,0-2.5,0.6-3,1.9v9.4h-2.3V99.6h2.2l0,1.5c0.7-1.2,1.8-1.8,3.2-1.8
		c0.4,0,0.8,0.1,1,0.2V101.6z"/>
	<path class="st0" d="M311.2,96.4v3.2h2.5v1.8h-2.5v8.3c0,0.5,0.1,0.9,0.3,1.2c0.2,0.3,0.6,0.4,1.1,0.4c0.3,0,0.6,0,1.1-0.1v1.8
		c-0.6,0.2-1.2,0.2-1.7,0.2c-1,0-1.8-0.3-2.3-0.9c-0.5-0.6-0.8-1.5-0.8-2.6v-8.2h-2.4v-1.8h2.4v-3.2H311.2z"/>
	<path class="st0" d="M321.8,113.1c-1.8,0-3.3-0.6-4.4-1.8c-1.1-1.2-1.7-2.8-1.7-4.7v-0.4c0-1.3,0.3-2.5,0.8-3.5s1.2-1.8,2.1-2.4
		c0.9-0.6,1.9-0.9,2.9-0.9c1.7,0,3.1,0.6,4,1.7c1,1.1,1.4,2.8,1.4,4.9v0.9h-9c0,1.3,0.4,2.4,1.1,3.2c0.7,0.8,1.7,1.2,2.8,1.2
		c0.8,0,1.5-0.2,2-0.5c0.6-0.3,1-0.8,1.5-1.3l1.4,1.1C325.7,112.3,324,113.1,321.8,113.1z M321.5,101.2c-0.9,0-1.7,0.3-2.3,1
		c-0.6,0.7-1,1.6-1.2,2.8h6.7v-0.2c-0.1-1.2-0.4-2-0.9-2.7C323.2,101.5,322.5,101.2,321.5,101.2z"/>
	<path class="st0" d="M331.8,99.6l0.1,1.7c1-1.3,2.3-1.9,4-1.9c2.8,0,4.2,1.6,4.3,4.8v8.8h-2.3v-8.8c0-1-0.2-1.7-0.7-2.1
		c-0.4-0.5-1.1-0.7-2-0.7c-0.7,0-1.4,0.2-1.9,0.6c-0.6,0.4-1,0.9-1.3,1.5v9.5h-2.3V99.6H331.8z"/>
	<path class="st0" d="M350.1,112.9V95h5c1.6,0,2.9,0.3,4.1,1c1.2,0.7,2.1,1.7,2.8,2.9s1,2.7,1,4.4v1.1c0,1.7-0.3,3.2-1,4.4
		c-0.7,1.3-1.6,2.2-2.8,2.9c-1.2,0.7-2.6,1-4.2,1H350.1z M352.5,96.9v14h2.5c1.8,0,3.2-0.6,4.2-1.7c1-1.1,1.5-2.7,1.5-4.8v-1
		c0-2-0.5-3.6-1.4-4.7c-1-1.1-2.3-1.7-4.1-1.7H352.5z"/>
	<path class="st0" d="M374.4,112.9c-0.1-0.3-0.2-0.7-0.3-1.4c-1.1,1.1-2.3,1.6-3.8,1.6c-1.3,0-2.4-0.4-3.2-1.1
		c-0.8-0.7-1.3-1.7-1.3-2.8c0-1.4,0.5-2.5,1.6-3.2c1.1-0.8,2.5-1.1,4.4-1.1h2.2v-1c0-0.8-0.2-1.4-0.7-1.9c-0.5-0.5-1.2-0.7-2.1-0.7
		c-0.8,0-1.5,0.2-2,0.6s-0.8,0.9-0.8,1.5h-2.3c0-0.7,0.2-1.3,0.7-1.9c0.5-0.6,1.1-1.1,1.9-1.5s1.7-0.5,2.7-0.5
		c1.5,0,2.7,0.4,3.6,1.1c0.9,0.8,1.3,1.8,1.4,3.2v6.1c0,1.2,0.2,2.2,0.5,2.9v0.2H374.4z M370.7,111.2c0.7,0,1.4-0.2,2-0.6
		s1.1-0.8,1.4-1.4v-2.7h-1.8c-2.8,0-4.2,0.8-4.2,2.4c0,0.7,0.2,1.3,0.7,1.7C369.3,111,369.9,111.2,370.7,111.2z"/>
	<path class="st0" d="M383,96.4v3.2h2.5v1.8H383v8.3c0,0.5,0.1,0.9,0.3,1.2c0.2,0.3,0.6,0.4,1.1,0.4c0.3,0,0.6,0,1.1-0.1v1.8
		c-0.6,0.2-1.2,0.2-1.7,0.2c-1,0-1.8-0.3-2.3-0.9c-0.5-0.6-0.8-1.5-0.8-2.6v-8.2h-2.4v-1.8h2.4v-3.2H383z"/>
	<path class="st0" d="M396.4,112.9c-0.1-0.3-0.2-0.7-0.3-1.4c-1.1,1.1-2.3,1.6-3.8,1.6c-1.3,0-2.4-0.4-3.2-1.1
		c-0.8-0.7-1.3-1.7-1.3-2.8c0-1.4,0.5-2.5,1.6-3.2c1.1-0.8,2.5-1.1,4.4-1.1h2.2v-1c0-0.8-0.2-1.4-0.7-1.9c-0.5-0.5-1.2-0.7-2.1-0.7
		c-0.8,0-1.5,0.2-2,0.6s-0.8,0.9-0.8,1.5H388c0-0.7,0.2-1.3,0.7-1.9c0.5-0.6,1.1-1.1,1.9-1.5s1.7-0.5,2.7-0.5c1.5,0,2.7,0.4,3.6,1.1
		c0.9,0.8,1.3,1.8,1.4,3.2v6.1c0,1.2,0.2,2.2,0.5,2.9v0.2H396.4z M392.6,111.2c0.7,0,1.4-0.2,2-0.6s1.1-0.8,1.4-1.4v-2.7h-1.8
		c-2.8,0-4.2,0.8-4.2,2.4c0,0.7,0.2,1.3,0.7,1.7C391.2,111,391.8,111.2,392.6,111.2z"/>
</g>
</svg>
