<?xml version="1.0" encoding="iso-8859-1"?>
<!-- Generator: Adobe Illustrator 19.0.0, SVG Export Plug-In . SVG Version: 6.00 Build 0)  -->
<svg xmlns="http://www.w3.org/2000/svg" xmlns:xlink="http://www.w3.org/1999/xlink" version="1.1" id="Capa_1" x="0px" y="0px" viewBox="0 0 512 512" style="enable-background:new 0 0 512 512;" xml:space="preserve" width="512px" height="512px">
<g>
	<g>
		<path d="M322.876,290.245c-4.148,0-7.511,3.363-7.511,7.511v12.818c0,4.148,3.363,7.511,7.511,7.511s7.511-3.363,7.511-7.511    v-12.818C330.387,293.607,327.024,290.245,322.876,290.245z" fill="#7f9daf"/>
	</g>
</g>
<g>
	<g>
		<path d="M464.529,290.245c-4.148,0-7.511,3.363-7.511,7.511v12.818c0,4.148,3.363,7.511,7.511,7.511s7.511-3.363,7.511-7.511    v-12.818C472.04,293.607,468.677,290.245,464.529,290.245z" fill="#7f9daf"/>
	</g>
</g>
<g>
	<g>
		<path d="M416.127,304.026c-3.123-2.73-7.868-2.411-10.598,0.712c-2.87,3.284-7.18,5.166-11.827,5.166    c-4.647,0-8.956-1.883-11.826-5.166c-2.73-3.123-7.474-3.442-10.598-0.712s-3.442,7.474-0.712,10.598    c5.722,6.547,14.155,10.302,23.136,10.302c8.981,0,17.414-3.755,23.137-10.302C419.569,311.502,419.25,306.756,416.127,304.026z" fill="#7f9daf"/>
	</g>
</g>
<g>
	<g>
		<path d="M476.618,204.753c-9.12-11.252-19.638-21.392-31.16-30.079c-5.066-3.818-10.356-7.423-15.843-10.814    c1.318-12.007,4.657-30.496,13.111-48.095c2.075,0.555,4.244,0.864,6.479,0.864c14.917,0,26.861-13.472,25.031-28.286    c-1.556-12.607-12.297-22.114-24.986-22.114c-14.913,0-26.856,13.489-25.03,28.286c0.617,5.006,2.7,9.507,5.76,13.134    c-8.502,17.094-12.555,34.937-14.481,48.198c-14.126-7.36-29.344-13.41-45.385-18.067c1.944-10.102,5.295-22.562,11.074-34.619    c2.073,0.554,4.241,0.863,6.474,0.863c7.727,0,15.133-3.607,19.887-9.699c4.141-5.306,5.966-11.908,5.142-18.587    c-1.555-12.607-12.296-22.114-24.985-22.114c-14.918,0-26.86,13.471-25.031,28.286c0.618,5.01,2.704,9.514,5.769,13.143    c-6.729,13.554-10.642,27.557-12.896,38.935c-9.945-2.301-20.156-4.088-30.577-5.341c0.276-0.808,0.551-1.617,0.797-2.431    c5.441-17.922,4.078-36.767-3.835-53.064c-8.009-16.493-21.746-28.407-38.679-33.547c-30.444-9.241-62.542,6.671-77.417,33.934    c-14.519-17.501-35.658-28.342-58.098-28.342c-6.854,0-13.665,1.012-20.243,3.009c-39.123,11.876-60.593,55.666-47.859,97.616    c5.252,17.302,15.545,32.018,29.419,42.375c-11.193,9.831-20.945,20.558-28.934,31.946c-11.932,17.01-19.982,35.541-23.834,54.605    L8.711,289.684C3.555,290.913,0,295.388,0,300.745c0,5.358,3.556,9.833,8.712,11.061l47.574,14.929    c3.85,19.066,11.902,37.598,23.834,54.608c16.545,23.586,40.595,44.378,69.552,60.13c24.438,13.287,51.654,22.797,80.893,28.269    c18.719,3.511,38.117,5.292,57.653,5.292c26.893,0,52.904-3.357,77.311-9.976c53.237-14.43,96.679-43.863,122.343-82.879    c0.02-0.03,0.04-0.058,0.071-0.104C524.716,326.368,518.07,255.896,476.618,204.753z M441.204,85.168    c1.672-2.143,4.079-3.507,6.778-3.839c0.422-0.052,0.848-0.078,1.268-0.078c5.117,0,9.45,3.84,10.078,8.933    c0.687,5.57-3.285,10.659-8.854,11.347c-0.422,0.052-0.849,0.078-1.269,0.078c-5.117,0-9.449-3.839-10.077-8.933    C438.795,89.976,439.533,87.311,441.204,85.168z M386.437,68.727c5.5-0.72,10.67,3.369,11.346,8.849    c0.739,5.992-4.092,11.425-10.122,11.425c-5.117,0-9.449-3.84-10.078-8.933C376.9,74.544,381.056,69.432,386.437,68.727z     M54.014,310.279l-30.383-9.534l30.383-9.538c-0.078,1.072-0.124,2.144-0.175,3.217C53.583,299.699,53.63,305.009,54.014,310.279z     M265.268,51.953c4.609,0,9.192,0.682,13.621,2.026c12.883,3.911,23.37,13.05,29.531,25.735    c6.256,12.882,7.312,27.847,2.974,42.139c-0.544,1.792-1.178,3.571-1.898,5.326c-0.868-0.059-8.937-0.474-12.105-0.578    c-10.443-0.306-20.893-0.096-31.316,0.624c-4.899,0.341-14.911,1.393-15.032,1.408c4.434-13.24,12.546-31.997,25.769-44.929    c2.965-2.9,3.018-7.656,0.118-10.621c-2.9-2.965-7.656-3.017-10.621-0.118c-8.024,7.848-22.476,25.607-31.753,58.069    c-3.186,0.554-6.365,1.153-9.532,1.807c0.432-6.419,0.085-12.914-0.962-19.258c-1.462-8.847-4.33-17.462-8.468-25.416    C223.877,66.695,243.891,51.953,265.268,51.953z M94.008,141.46c-10.328-34.025,6.651-69.411,37.848-78.88    c27.465-8.337,56.083,6.681,69.566,30.989c7.128,12.852,10.101,28.049,8.177,42.633c-0.011,0.089-0.021,0.177-0.033,0.266    c-10.027,2.639-19.914,5.824-29.585,9.564c-5.542-17.218-16.087-42.267-34.189-59.973c-2.965-2.9-7.72-2.847-10.621,0.118    c-2.9,2.965-2.848,7.721,0.118,10.621c16.33,15.971,25.864,39.379,30.79,55.069c-9.025,4.096-17.809,8.691-26.279,13.839    c-3.709,2.254-18.362,12.849-18.675,12.642C108.248,169.861,98.704,156.927,94.008,141.46z M92.468,372.681    c-11.057-15.725-19.034-33.463-22.209-52.745c-0.01-0.079-0.01-0.158-0.023-0.237c-2.057-12.532-2.057-25.384,0-37.915    c0.013-0.081,0.013-0.161,0.024-0.241c4.747-35.614,29.046-66.929,56.549-88.602c0.836-0.659,3.427-2.64,3.536-2.722    c-0.058,0.115-1.936,3.872-2.787,5.649c-15.551,32.45-23.659,68.707-23.659,104.873c0,38.155,8.921,76.196,26.281,110.194    c0.059,0.115,0.112,0.232,0.171,0.346C115.956,400.448,102.854,387.453,92.468,372.681z M158.429,429.128    c-0.689-1.005-1.372-2.014-2.044-3.03c-6.284-9.503-11.855-19.483-16.633-29.826c-13.801-29.871-20.833-62.641-20.833-95.531    c0-41.831,11.606-83.494,33.518-119.152c1.322-2.15,5.741-8.857,5.985-9.214c0.173-0.092,0.346-0.185,0.521-0.277    c16.247-8.627,33.506-15.331,51.23-20.227c0.367-0.101,0.735-0.198,1.102-0.297c-3.773,4.817-7.352,9.783-10.747,14.874    c-26.31,39.457-40.373,86.901-40.373,134.295c0,50.076,15.599,99.789,44.699,140.584c0.722,1.011,5.34,7.214,6.439,8.617    C192.512,444.839,174.808,437.872,158.429,429.128z M361.596,450.561c-23.125,6.272-47.814,9.452-73.379,9.452    c-17.769,0-35.406-1.544-52.466-4.592c-16.741-17.947-30.539-38.639-40.611-61.023c-13.965-31.029-20.692-65.117-19.901-99.119    c0.908-39.021,12.017-77.933,32.058-111.444c8.097-13.539,17.676-26.207,28.432-37.744c0.768-0.137,1.536-0.273,2.306-0.405    c24.729-4.213,50.039-5.284,75.036-3.171c44.837,3.776,85.948,17.766,118.186,40.407c-13.898,0-27.11,4.841-37.617,13.709    c-18.449-16.508-42.101-25.549-67.089-25.549c-33.267,0-64.641,16.182-83.925,43.285c-18.465,25.943-28.225,55.81-28.225,86.371    c0,22.226,5.219,44.255,14.99,64.202c24.998,51.031,77.432,83.132,134.169,83.132c1.434,0,6.584-0.138,7.131-0.164    C367.697,448.846,364.666,449.729,361.596,450.561z M475.361,373.793c-24.78,37.185-67.217,59.259-111.799,59.259    c-51.061,0-98.187-28.787-120.679-74.717c-21.469-43.844-16.169-95.704,11.983-135.256    c30.198-42.429,93.979-49.612,131.519-12.672c2.124,2.09,4.003,4.092,7.215,4.105c3.211,0.012,5.419-2.374,7.556-4.436    c8.672-8.367,20.591-12.737,32.614-12.058c12.161,0.687,23.463,6.343,31.317,15.763c20.786,24.936,32.366,55.839,32.609,87.019    C497.897,326.716,489.687,352.297,475.361,373.793z" fill="#7f9daf"/>
	</g>
</g>
<g>
</g>
<g>
</g>
<g>
</g>
<g>
</g>
<g>
</g>
<g>
</g>
<g>
</g>
<g>
</g>
<g>
</g>
<g>
</g>
<g>
</g>
<g>
</g>
<g>
</g>
<g>
</g>
<g>
</g>
</svg>
